<svg id="Calque_1" data-name="Calque 1" xmlns="http://www.w3.org/2000/svg" viewBox="0 0 420 411"><defs><style>.cls-1{fill:#242b28;}.cls-2{fill:#e32430;}</style></defs><title>logo-le-cerisier</title><path class="cls-1" d="M216.79,21.5h-15c-6.71,0-5.75,2.44-5.75,13.64V369.37c0,12.67.48,14.13,5.27,14.13h15.94c4.87,0,5.36-1.46,5.36-14.13V35.14C222.64,23.94,223.61,21.5,216.79,21.5Z"/><circle class="cls-2" cx="121.59" cy="119.25" r="24.86"/><path class="cls-1" d="M306.56,21.5h-15c-6.71,0-5.75,2.44-5.75,13.64V369.37c0,12.67.48,14.13,5.27,14.13h15.94c4.87,0,5.36-1.46,5.36-14.13V35.14C312.41,23.94,313.38,21.5,306.56,21.5Z"/></svg>